<?xml version="1.0" encoding="UTF-8" standalone="no"?>
<svg
   viewBox="0 0 607.94995 546.92462"
   version="1.1"
   id="svg4"
   sodipodi:docname="home.svg"
   width="607.94995"
   height="546.92462"
   inkscape:version="1.1.2 (08b2f3d93c, 2022-04-05)"
   xmlns:inkscape="http://www.inkscape.org/namespaces/inkscape"
   xmlns:sodipodi="http://sodipodi.sourceforge.net/DTD/sodipodi-0.dtd"
   xmlns="http://www.w3.org/2000/svg"
   xmlns:svg="http://www.w3.org/2000/svg">
  <defs
     id="defs8" />
  <sodipodi:namedview
     id="namedview6"
     pagecolor="#ffffff"
     bordercolor="#666666"
     borderopacity="1.0"
     inkscape:pageshadow="2"
     inkscape:pageopacity="0.0"
     inkscape:pagecheckerboard="0"
     showgrid="false"
     fit-margin-top="0"
     fit-margin-left="0"
     fit-margin-right="0"
     fit-margin-bottom="0"
     inkscape:zoom="0.61"
     inkscape:cx="653.27869"
     inkscape:cy="497.54098"
     inkscape:window-width="1848"
     inkscape:window-height="1016"
     inkscape:window-x="72"
     inkscape:window-y="27"
     inkscape:window-maximized="1"
     inkscape:current-layer="svg4" />
  <!--! Font Awesome Pro 6.1.1 by @fontawesome - https://fontawesome.com License - https://fontawesome.com/license (Commercial License) Copyright 2022 Fonticons, Inc. -->
  <path
     d="m 591.8,271.5 c 0,18 -15,32.1 -32,32.1 h -32 l 0.7,160.1 c 0,2.8 -0.2,5.4 -0.5,8.1 V 488 c 0,22.1 -17.9,40 -40,40 h -16 c -1.1,0 -2.2,-0.9 -3.3,-0.1 -1.4,-0.8 -2.8,0.1 -4.2,0.1 H 408 c -22.1,0 -40,-17.9 -40,-40 v -88 c 0,-17.7 -14.3,-32 -32,-32 h -64 c -17.7,0 -32,14.3 -32,32 v 88 c 0,22.1 -17.9,40 -40,40 h -55.9 c -1.5,0 -3,-0.1 -4.5,-0.2 -1.2,0.1 -2.4,0.2 -3.6,0.2 H 120 C 97.91,528 80,510.1 80,488 V 376 c 0,-0.9 0.03,-1.9 0.09,-2.8 V 303.6 H 48.05 C 30.02,303.6 16,289.5 16,271.5 c 0,-9 3.004,-17 10.01,-24 L 282.4,24.016 c 7,-7.014 15,-8.016 22,-8.016 7,0 15,2.004 21.1,7.014 L 580.8,247.5 c 8,7 12.1,15 11,24 z"
     id="path2"
     style="fill:none;stroke:#1a1a1a;stroke-width:32;stroke-miterlimit:4;stroke-dasharray:none;stroke-opacity:1" />
</svg>
