<?xml version="1.0" encoding="UTF-8" standalone="no"?>
<!-- Created with Inkscape (http://www.inkscape.org/) -->

<svg
   version="1.1"
   id="svg2"
   width="182.55983"
   height="182.55983"
   viewBox="0 0 182.55983 182.55983"
   sodipodi:docname="info.svg"
   inkscape:version="1.1.2 (08b2f3d93c, 2022-04-05)"
   xmlns:inkscape="http://www.inkscape.org/namespaces/inkscape"
   xmlns:sodipodi="http://sodipodi.sourceforge.net/DTD/sodipodi-0.dtd"
   xmlns="http://www.w3.org/2000/svg"
   xmlns:svg="http://www.w3.org/2000/svg">
  <defs
     id="defs6" />
  <sodipodi:namedview
     id="namedview4"
     pagecolor="#ffffff"
     bordercolor="#666666"
     borderopacity="1.0"
     inkscape:pageshadow="2"
     inkscape:pageopacity="0.0"
     inkscape:pagecheckerboard="0"
     showgrid="false"
     inkscape:zoom="1.3179091"
     inkscape:cx="47.423605"
     inkscape:cy="223.46002"
     inkscape:window-width="1848"
     inkscape:window-height="1016"
     inkscape:window-x="72"
     inkscape:window-y="27"
     inkscape:window-maximized="1"
     inkscape:current-layer="g8"
     fit-margin-top="0"
     fit-margin-left="0"
     fit-margin-right="0"
     fit-margin-bottom="0" />
  <g
     inkscape:groupmode="layer"
     inkscape:label="Image"
     id="g8"
     transform="translate(31.773861,31.773861)">
    <path
       style="display:inline;fill:#1a1a1a;stroke-width:0.232446"
       d="m 56.190077,118.75461 c -8.910136,-1.24855 -14.499389,-6.65241 -15.019309,-14.52115 -0.312184,-4.724744 0.532556,-9.010184 4.650661,-23.593214 4.52732,-16.03216 5.175239,-19.02078 4.984115,-22.98988 -0.0914,-1.89802 -0.223898,-2.54027 -0.742954,-3.60118 -0.708875,-1.44889 -1.359785,-2.00073 -3.023821,-2.56358 -2.796389,-0.94586 -6.77624,-0.68945 -11.139624,0.7177 -1.385596,0.44685 -2.555911,0.7758 -2.600694,0.73102 -0.04479,-0.0448 0.288735,-1.55969 0.741151,-3.36646 l 0.822576,-3.28503 3.637681,-1.39139 c 10.137164,-3.87741 15.62576,-5.03006 21.36309,-4.48645 5.444323,0.51585 8.633408,1.85197 11.691752,4.89844 2.159103,2.15073 3.106207,3.75717 3.840179,6.51356 0.748719,2.81177 0.422372,9.2809 -0.709428,14.06296 -0.302579,1.27845 -2.02242,7.54309 -3.821872,13.92143 -3.956883,14.02559 -4.551704,16.76275 -4.551704,20.945394 0,2.58931 0.07022,3.17149 0.490637,4.06779 1.099237,2.3435 2.866413,3.2284 6.842052,3.42612 2.743427,0.13643 4.936913,-0.20979 8.415496,-1.3283 1.118644,-0.35969 2.029837,-0.5866 2.024887,-0.50423 -0.0368,0.61206 -1.583862,6.36408 -1.752829,6.51723 -0.225758,0.20462 -7.390015,2.96397 -10.860185,4.18286 -3.34146,1.17368 -6.140013,1.66001 -10.157637,1.7652 -1.981598,0.0519 -4.287497,-0.002 -5.12422,-0.11884 z M 66.944121,27.173696 c -4.948026,-1.2964 -8.863871,-4.91726 -10.30226,-9.52619 -0.712127,-2.28182 -0.665868,-5.67668 0.107662,-7.90097 1.459579,-4.19701 4.805072,-7.41507 9.332139,-8.97666007 1.630845,-0.56256 2.211647,-0.64192 4.762902,-0.65083 4.685551,-0.0164 7.580483,1.15525007 10.833365,4.38439007 2.813179,2.79264 4.049019,5.70679 4.039709,9.52574 -0.012,4.91413 -3.133864,9.7137 -7.863886,12.08988 -3.023863,1.51907 -7.489404,1.95076 -10.909631,1.05464 z"
       id="path1103" />
    <circle
       style="opacity:1;fill:none;fill-rule:evenodd;stroke:#1a1a1a;stroke-width:8;stroke-linecap:round;stroke-linejoin:round;stroke-miterlimit:4;stroke-dasharray:none;paint-order:stroke fill markers"
       id="path844"
       cx="59.506054"
       cy="59.506054"
       r="87.279915" />
  </g>
</svg>
