<?xml version="1.0" encoding="UTF-8" standalone="no"?>
<svg
   viewBox="0 0 253 188"
   version="1.1"
   id="svg4"
   sodipodi:docname="menu.svg"
   inkscape:version="1.1.2 (08b2f3d93c, 2022-04-05)"
   width="253"
   height="188"
   xmlns:inkscape="http://www.inkscape.org/namespaces/inkscape"
   xmlns:sodipodi="http://sodipodi.sourceforge.net/DTD/sodipodi-0.dtd"
   xmlns="http://www.w3.org/2000/svg"
   xmlns:svg="http://www.w3.org/2000/svg">
  <defs
     id="defs8" />
  <sodipodi:namedview
     id="namedview6"
     pagecolor="#ffffff"
     bordercolor="#666666"
     borderopacity="1.0"
     inkscape:pageshadow="2"
     inkscape:pageopacity="0.0"
     inkscape:pagecheckerboard="0"
     showgrid="true"
     inkscape:zoom="2.86"
     inkscape:cx="131.29371"
     inkscape:cy="86.538462"
     inkscape:window-width="1848"
     inkscape:window-height="1016"
     inkscape:window-x="72"
     inkscape:window-y="27"
     inkscape:window-maximized="1"
     inkscape:current-layer="svg4"
     fit-margin-top="0"
     fit-margin-left="0"
     fit-margin-right="0"
     fit-margin-bottom="0">
    <inkscape:grid
       type="xygrid"
       id="grid1029"
       originx="-306"
       originy="-66" />
  </sodipodi:namedview>
  <!--! Font Awesome Pro 6.1.1 by @fontawesome - https://fontawesome.com License - https://fontawesome.com/license (Commercial License) Copyright 2022 Fonticons, Inc. -->
  <path
     style="fill:#1a1a1a;stroke:none;stroke-width:0.5"
     d="m -220,152 c -8.835,0 -16,7.15 -16,16 0,8.85 7.165,16 16,16 h 35.5 8.5 35.5 42.5 c 8.85,0 16,-7.15 16,-16 0,-8.85 -7.15,-16 -16,-16 h -42.5 -35.5 -8.5 z"
     id="path1625" />
  <path
     style="fill:#1a1a1a;stroke:none;stroke-width:0.5"
     d="m -290,72 c -8.835,0 -16,7.15 -16,16 0,8.85 7.165,16 16,16 h 192 c 8.85,0 16,-7.15 16,-16 0,-8.85 -7.15,-16 -16,-16 z"
     id="path1623" />
  <path
     style="fill:#1a1a1a;stroke:none;stroke-width:0.5"
     d="m -241,-8 c -8.835,0 -16,7.165 -16,16 0,8.85 7.165,16 16,16 h 49 94 c 8.85,0 16,-7.15 16,-16 0,-8.835 -7.15,-16 -16,-16 h -94 z"
     id="path1858" />
  <path
     style="fill:none;stroke:#1a1a1a;stroke-width:28;stroke-linecap:round;stroke-linejoin:round;stroke-miterlimit:4;stroke-dasharray:none;stroke-opacity:1"
     d="M 239,14 H 64"
     id="path2078" />
  <path
     style="fill:none;stroke:#1a1a1a;stroke-width:28;stroke-linecap:round;stroke-linejoin:round;stroke-miterlimit:4;stroke-dasharray:none;stroke-opacity:1"
     d="M 239,94 H 14"
     id="path2113" />
  <path
     style="fill:none;stroke:#1a1a1a;stroke-width:28;stroke-linecap:round;stroke-linejoin:round;stroke-miterlimit:4;stroke-dasharray:none;stroke-opacity:1"
     d="M 239,174 H 110"
     id="path2148"
     sodipodi:nodetypes="cc" />
</svg>
