<?xml version="1.0" encoding="UTF-8" standalone="no"?>
<svg
   viewBox="0 0 575.65845 544"
   version="1.1"
   id="svg4"
   sodipodi:docname="store.svg"
   inkscape:version="1.1.2 (08b2f3d93c, 2022-04-05)"
   width="575.65845"
   height="544"
   xmlns:inkscape="http://www.inkscape.org/namespaces/inkscape"
   xmlns:sodipodi="http://sodipodi.sourceforge.net/DTD/sodipodi-0.dtd"
   xmlns="http://www.w3.org/2000/svg"
   xmlns:svg="http://www.w3.org/2000/svg">
  <defs
     id="defs8" />
  <sodipodi:namedview
     id="namedview6"
     pagecolor="#ffffff"
     bordercolor="#666666"
     borderopacity="1.0"
     inkscape:pageshadow="2"
     inkscape:pageopacity="0.0"
     inkscape:pagecheckerboard="0"
     showgrid="false"
     inkscape:zoom="1.1476306"
     inkscape:cx="359.43622"
     inkscape:cy="239.18846"
     inkscape:window-width="1848"
     inkscape:window-height="1016"
     inkscape:window-x="72"
     inkscape:window-y="27"
     inkscape:window-maximized="1"
     inkscape:current-layer="svg4"
     fit-margin-top="0"
     fit-margin-left="0"
     fit-margin-right="0"
     fit-margin-bottom="0" />
  <!--! Font Awesome Pro 6.1.1 by @fontawesome - https://fontawesome.com License - https://fontawesome.com/license (Commercial License) Copyright 2022 Fonticons, Inc. -->
  <path
     d="m 495.35015,239.2 c -3.9,0.5 -7.9,0.8 -12.1,0.8 -26,0 -49.2,-11.4 -65.1,-29 -15.9,17.6 -39.1,29 -65.2,29 -26.1,0 -49.3,-11.4 -65.2,-29 -15.9,17.6 -39,29 -65.2,29 -26,0 -49.2,-11.4 -65.1,-29 -15.9,17.6 -39.1,29 -65.240001,29 -4.06,0 -8.15,-0.3 -12.12,-0.8 -55.32,-7.4 -81.495,-72.6 -51.91,-119.4 l 57.33,-90.67 c 5.1,-8.151 14.21,-13.13 23.940001,-13.13 h 356.8 c 9.7,0 18.8,4.978 23.9,13.13 l 57.3,90.67 c 29.7,46.9 3.4,112 -52.1,119.4 z m 4.2,41.7 c 3.4,-0.5 8.3,-1.3 12.3,-2.3 V 474 c 0,35.3 -28.7,54 -64,54 h -320 C 92.510149,528 63.850149,499.3 63.850149,464 V 278.6 c 3.87,1 7.98,1.8 12.09,2.3 v 0 c 5.26,0.7 10.74,1.1 16.27,1.1 12.440001,0 24.440001,-1.9 35.640001,-5.4 V 420 h 320 V 276.7 c 11.2,3.4 23.1,5.3 35.4,5.3 5.6,0 11,-0.4 16.3,-1.1 z"
     id="path2"
     style="fill:none;stroke:#1a1a1a;stroke-width:32;stroke-miterlimit:4;stroke-dasharray:none;stroke-opacity:1"
     sodipodi:nodetypes="cscscscscccsscccccsssscccsccccsc" />
</svg>
